<?xml version="1.0" standalone="no"?>
<!DOCTYPE svg PUBLIC "-//W3C//DTD SVG 20010904//EN"
 "http://www.w3.org/TR/2001/REC-SVG-20010904/DTD/svg10.dtd">
<svg version="1.0" xmlns="http://www.w3.org/2000/svg"
 width="1501.000000pt" height="1501.000000pt" viewBox="0 0 1501.000000 1501.000000"
 preserveAspectRatio="xMidYMid meet">
<metadata>
Created by potrace 1.14, written by Peter Selinger 2001-2017
</metadata>
<g transform="translate(0.000000,1501.000000) scale(0.100000,-0.100000)"
fill="#000000" stroke="none">
<path d="M11868 14785 c-1 -1 -68 -5 -148 -8 -80 -3 -179 -13 -220 -22 -41 -9
-82 -18 -90 -20 -81 -17 -309 -105 -456 -175 -102 -48 -104 -49 -161 -39 -68
11 -445 65 -518 74 -27 4 -61 8 -75 10 -14 2 -50 7 -80 10 -30 3 -66 8 -80 10
-14 2 -56 7 -95 10 -38 4 -77 8 -86 10 -16 3 -55 8 -179 20 -19 2 -69 6 -110
10 -41 3 -91 8 -110 10 -19 3 -64 7 -100 9 -85 7 -191 15 -260 21 -30 3 -100
7 -155 10 -55 4 -125 8 -155 10 -57 4 -237 13 -395 20 -522 23 -1544 23 -1875
0 -30 -2 -118 -6 -195 -10 -77 -3 -167 -8 -200 -10 -65 -4 -226 -15 -290 -20
-160 -11 -235 -17 -270 -21 -22 -2 -71 -6 -110 -9 -91 -7 -161 -14 -205 -20
-19 -2 -59 -7 -87 -10 -29 -3 -77 -7 -105 -10 -29 -3 -69 -8 -88 -10 -19 -3
-93 -12 -165 -20 -71 -9 -141 -18 -155 -20 -14 -2 -47 -6 -75 -10 -27 -3 -77
-10 -110 -15 -89 -13 -125 -18 -180 -26 -27 -3 -59 -8 -70 -10 -11 -2 -40 -7
-65 -10 -25 -4 -90 -14 -144 -23 -99 -16 -100 -16 -170 6 -93 31 -218 61 -286
69 -30 3 -59 8 -63 11 -19 11 -362 1 -374 -11 -4 -4 -46 -155 -66 -237 -6 -24
-15 -29 -84 -44 -553 -126 -1146 -301 -1643 -485 l-165 -61 -52 -97 c-28 -54
-61 -122 -72 -152 -12 -30 -26 -64 -31 -75 -9 -21 -38 -108 -63 -190 -15 -51
-56 -220 -63 -265 -3 -14 -9 -47 -14 -75 -16 -78 -38 -215 -45 -275 -4 -30 -8
-66 -10 -80 -6 -40 -18 -157 -29 -275 -9 -89 -23 -302 -31 -467 -13 -243 -16
-439 -16 -968 0 -513 3 -687 17 -924 3 -55 7 -132 9 -173 6 -118 15 -245 20
-288 2 -22 7 -76 10 -120 3 -44 8 -96 11 -115 3 -19 7 -58 9 -85 2 -28 6 -68
9 -90 3 -22 8 -62 11 -90 3 -27 10 -81 15 -120 5 -38 12 -90 15 -115 3 -25 8
-56 10 -70 3 -14 7 -41 9 -60 9 -71 25 -166 57 -350 5 -30 14 -82 20 -114 5
-33 12 -62 14 -65 2 -4 6 -27 10 -51 3 -25 10 -61 15 -80 5 -19 11 -46 13 -60
48 -270 206 -855 342 -1267 108 -325 230 -636 408 -1038 12 -27 76 -158 142
-290 66 -132 121 -243 123 -246 3 -7 -59 -23 -123 -33 -29 -5 -107 -18 -170
-30 -16 -3 -156 -28 -309 -56 -153 -28 -283 -53 -287 -56 -8 -4 5 -35 71 -179
18 -38 49 -108 70 -155 21 -47 56 -124 79 -172 22 -48 41 -89 41 -92 0 -2 24
-55 54 -117 29 -63 65 -139 79 -169 60 -131 191 -405 343 -719 63 -128 114
-235 114 -238 0 -2 -35 -20 -77 -39 -179 -82 -612 -288 -652 -311 -2 -1 4 -31
13 -65 14 -57 80 -301 91 -338 2 -8 13 -49 24 -90 11 -41 38 -140 59 -220 22
-80 68 -246 101 -369 34 -123 63 -226 66 -230 2 -4 6 -20 9 -35 5 -26 19 -77
57 -208 l20 -67 42 -5 c39 -5 92 -10 227 -21 30 -3 69 -7 85 -9 17 -3 71 -7
120 -11 50 -4 100 -8 113 -10 12 -2 64 -7 115 -10 50 -4 122 -10 159 -14 67
-7 68 -7 130 35 35 22 102 66 150 97 l87 56 6 -29 c7 -34 3 -35 138 30 49 23
91 40 94 37 2 -3 -4 -25 -15 -49 -11 -23 -32 -72 -47 -108 -15 -36 -38 -90
-52 -120 -24 -53 -44 -99 -48 -110 -5 -16 -51 -112 -108 -228 -43 -89 -60
-131 -49 -127 38 16 169 57 192 61 14 3 32 7 40 10 17 6 415 89 470 98 51 8
89 15 145 26 28 6 64 12 80 14 17 3 84 14 150 26 66 11 134 23 150 25 17 3 39
6 50 9 11 2 54 9 95 16 41 6 84 13 95 15 23 3 143 26 165 30 8 2 24 4 35 4 17
1 15 5 -12 27 -36 28 -64 97 -46 115 6 6 50 19 99 30 97 21 317 69 349 75 11
2 29 6 40 8 16 3 218 44 309 62 67 13 200 38 292 54 l71 13 159 -100 c419
-263 837 -493 1144 -630 522 -234 651 -224 1294 93 83 41 185 92 226 115 41
22 109 59 150 81 224 121 683 402 861 527 20 15 45 31 55 38 11 7 102 72 204
145 l185 133 160 5 c88 3 236 4 328 2 l168 -2 19 -33 c21 -34 26 -81 11 -119
l-9 -23 172 2 c591 7 1169 2 1306 -12 25 -2 81 -7 125 -10 147 -12 432 -56
455 -70 20 -12 9 9 -38 74 -67 92 -205 291 -357 516 -70 105 -136 201 -147
214 -10 13 -18 28 -18 33 0 10 5 9 180 -27 247 -52 225 -50 227 -25 1 12 3 24
5 25 2 2 100 -17 218 -42 118 -24 226 -46 240 -49 14 -3 32 -7 40 -9 8 -2 29
-7 45 -9 17 -3 84 -19 150 -35 66 -16 123 -27 126 -23 6 7 19 41 131 357 206
581 332 948 538 1565 192 574 528 1615 562 1740 5 19 15 53 23 75 20 60 127
404 141 456 4 14 -4 16 -53 14 -32 -2 -134 -6 -228 -10 -93 -3 -201 -8 -240
-10 -38 -2 -140 -6 -225 -10 -152 -6 -268 -11 -464 -20 -90 -5 -98 -4 -91 13
125 311 303 853 391 1187 70 269 151 617 177 765 10 51 20 106 24 125 10 52
42 234 48 270 3 23 7 50 9 60 6 35 16 99 20 130 2 17 7 49 10 73 3 23 9 61 12
85 3 23 7 53 9 67 2 14 6 50 10 80 3 30 8 71 10 90 8 55 20 171 30 285 3 38 8
86 10 105 3 19 7 78 10 130 3 52 8 118 10 145 32 330 37 1315 10 1825 -10 194
-16 298 -19 340 -2 25 -7 95 -11 155 -4 61 -9 112 -10 115 -2 3 -6 47 -10 99
-4 51 -8 101 -10 111 -2 10 -6 47 -10 82 -3 35 -7 74 -10 88 -2 14 -7 48 -10
75 -4 28 -8 66 -11 85 -2 19 -13 85 -24 145 -10 61 -22 126 -25 145 -31 187
-125 514 -185 645 -16 35 -36 79 -43 97 -13 29 -25 37 -93 61 -44 16 -106 39
-139 52 -294 114 -925 304 -1378 416 -123 30 -178 48 -182 59 -2 8 -7 35 -10
60 -3 25 -18 97 -32 160 -14 63 -26 120 -27 125 -2 6 -9 37 -16 70 -8 33 -13
62 -13 65 2 6 -33 11 -39 5z"/>
</g>
</svg>
